<?xml version="1.0" encoding="utf-8"?>
<!-- Generator: Adobe Illustrator 25.1.0, SVG Export Plug-In . SVG Version: 6.00 Build 0)  -->
<svg version="1.1" xmlns="http://www.w3.org/2000/svg" xmlns:xlink="http://www.w3.org/1999/xlink" x="0px" y="0px"
	 viewBox="0 0 24 24" style="enable-background:new 0 0 24 24;" xml:space="preserve">
<style type="text/css">
	.st0{display:none;}
	.st1{display:inline;}
	.st2{fill:none;}
	.st3{fill:none;stroke:#5A5A5A;stroke-width:1.5;stroke-miterlimit:10;}
	.st4{fill:#FFFFFF;stroke:#5A5A5A;stroke-width:1.5;stroke-miterlimit:10;}
	.st5{fill:#5A5A5A;}
	.st6{fill:none;stroke:#5A5A5A;stroke-width:1.5;stroke-linejoin:round;stroke-miterlimit:10;}
</style>
<g id="Layer_1" class="st0">
	<g class="st1">
		<path class="st2" d="M0,0h24v24H0V0z"/>
	</g>
	<g class="st1">
		<g>
			<path d="M4,6H2v14c0,1.1,0.9,2,2,2h14v-2H4V6z"/>
			<path d="M20,2H8C6.9,2,6,2.9,6,4v12c0,1.1,0.9,2,2,2h12c1.1,0,2-0.9,2-2V4C22,2.9,21.1,2,20,2z M14,15c-0.6,0-1.1-0.5-1.1-1.1
				c0-0.6,0.5-1,1.1-1c0.6,0,1,0.4,1,1C15,14.5,14.6,15,14,15z M16.5,8.8c-0.6,0.9-1.2,1.2-1.6,1.8c-0.1,0.2-0.2,0.4-0.2,1.2h-1.5
				c0-0.4-0.1-1.1,0.3-1.6c0.4-0.7,1.2-1.2,1.6-1.8c0.5-0.7,0.2-1.9-1.1-1.9c-0.9,0-1.3,0.7-1.5,1.2l-1.4-0.6C11.5,6,12.5,5,14,5
				c1.2,0,2.1,0.6,2.5,1.3C16.9,6.9,17.1,8,16.5,8.8z"/>
		</g>
	</g>
</g>
<g id="Layer_1_copy" class="st0">
	<g id="Group_50_2_" transform="translate(0 0.75)" class="st1">
		<g>
			<g id="Group_19_2_" transform="translate(0 19.799)">
				<line id="Line_12_2_" class="st3" x1="2" y1="-1.2" x2="22" y2="-1.2"/>
			</g>
			<circle id="Ellipse_9_1_" class="st4" cx="7.1" cy="18.6" r="1.9"/>
		</g>
		<g>
			<g id="Group_18_2_" transform="translate(0 11.317)">
				<line id="Line_11_2_" class="st3" x1="2" y1="-0.1" x2="22" y2="-0.1"/>
			</g>
			<circle id="Ellipse_10_1_" class="st4" cx="19.5" cy="11.2" r="1.9"/>
		</g>
		<g>
			<g id="Group_17_2_" transform="translate(0 2.836)">
				<line id="Line_10_2_" class="st3" x1="2" y1="1.1" x2="22" y2="1.1"/>
			</g>
			<circle id="Ellipse_11_1_" class="st4" cx="11.3" cy="3.9" r="1.9"/>
		</g>
	</g>
	<g class="st1">
		<path class="st2" d="M0,0h24v24H0V0z"/>
	</g>
	<g id="Group_50" transform="translate(0 0.75)" class="st1">
		<g id="Group_17" transform="translate(0 2.836)">
			<line id="Line_10" class="st3" x1="28.1" y1="0.6" x2="57.4" y2="0.6"/>
		</g>
		<g id="Group_18" transform="translate(0 11.317)">
			<line id="Line_11" class="st3" x1="28.1" y1="0.6" x2="57.4" y2="0.6"/>
		</g>
		<g id="Group_19" transform="translate(0 19.799)">
			<line id="Line_12" class="st3" x1="28.1" y1="0.6" x2="57.4" y2="0.6"/>
		</g>
		<circle id="Ellipse_9" class="st4" cx="35.6" cy="20.4" r="2.8"/>
		<circle id="Ellipse_10" class="st4" cx="50.2" cy="11.9" r="2.8"/>
		<circle id="Ellipse_11" class="st4" cx="40.2" cy="3.5" r="2.8"/>
	</g>
</g>
<g id="Layer_1_copy_3">
	<g>
		<path class="st2" d="M0,0h24v24H0V0z"/>
	</g>
	<path class="st5" d="M22,3.9h-8.2C13.5,2.8,12.5,2,11.3,2S9,2.8,8.7,3.9H2v1.5h6.7C9,6.6,10,7.4,11.3,7.4s2.2-0.8,2.6-1.9H22V3.9z
		 M11.3,5.9c-0.7,0-1.2-0.5-1.2-1.2s0.5-1.2,1.2-1.2s1.2,0.5,1.2,1.2S11.9,5.9,11.3,5.9z"/>
	<path class="st5" d="M22,18.5H9.7c-0.3-1.1-1.3-1.9-2.6-1.9s-2.2,0.8-2.6,1.9H2V20h2.6C4.9,21.2,5.9,22,7.1,22s2.2-0.8,2.6-1.9H22
		V18.5z M7.1,20.5c-0.7,0-1.2-0.5-1.2-1.2s0.5-1.2,1.2-1.2s1.2,0.5,1.2,1.2S7.8,20.5,7.1,20.5z"/>
	<path class="st5" d="M19.5,9.3c-1.2,0-2.2,0.8-2.6,1.9H2v1.5h14.9c0.3,1.1,1.3,1.9,2.6,1.9c1.5,0,2.7-1.2,2.7-2.7
		C22.2,10.5,20.9,9.3,19.5,9.3z M19.5,13.2c-0.7,0-1.2-0.5-1.2-1.2s0.5-1.2,1.2-1.2s1.2,0.5,1.2,1.2S20.1,13.2,19.5,13.2z"/>
</g>
<g id="Layer_5" class="st0">
	<g id="Group_50_3_" transform="translate(0 0.75)" class="st1">
		<g id="Group_17_3_" transform="translate(0 2.836)">
			<line id="Line_10_3_" class="st3" x1="11.2" y1="16.8" x2="40.5" y2="16.8"/>
		</g>
		<g id="Group_18_3_" transform="translate(0 11.317)">
			<line id="Line_11_3_" class="st3" x1="11.2" y1="16.8" x2="40.5" y2="16.8"/>
		</g>
		<g id="Group_19_3_" transform="translate(0 19.799)">
			<line id="Line_12_3_" class="st3" x1="11.2" y1="16.8" x2="40.5" y2="16.8"/>
		</g>
		<circle id="Ellipse_9_2_" class="st4" cx="18.7" cy="36.6" r="2.8"/>
		<circle id="Ellipse_10_2_" class="st4" cx="33.3" cy="28.1" r="2.8"/>
		<circle id="Ellipse_11_2_" class="st4" cx="23.3" cy="19.7" r="2.8"/>
	</g>
</g>
<g id="Layer_1_copy_2" class="st0">
	<g id="Group_50_1_" transform="translate(0 0.75)" class="st1">
		<g>
			<g id="Group_19_1_" transform="translate(0 19.799)">
				<line id="Line_12_1_" class="st6" x1="2" y1="-1.2" x2="22" y2="-1.2"/>
			</g>
		</g>
		<g>
			<g id="Group_18_1_" transform="translate(0 11.317)">
				<line id="Line_11_1_" class="st6" x1="2" y1="-0.1" x2="22" y2="-0.1"/>
			</g>
		</g>
		<g>
			<g id="Group_17_1_" transform="translate(0 2.836)">
				<line id="Line_10_1_" class="st6" x1="2" y1="1.1" x2="22" y2="1.1"/>
			</g>
		</g>
	</g>
	<g class="st1">
		<path class="st2" d="M0,0h24v24H0V0z"/>
	</g>
</g>
</svg>
