<?xml version="1.0" encoding="utf-8"?>
<!-- Generator: Adobe Illustrator 25.1.0, SVG Export Plug-In . SVG Version: 6.00 Build 0)  -->
<svg version="1.1" xmlns="http://www.w3.org/2000/svg" xmlns:xlink="http://www.w3.org/1999/xlink" x="0px" y="0px"
	 viewBox="0 0 24 24" style="enable-background:new 0 0 24 24;" xml:space="preserve">
<style type="text/css">
	.st0{display:none;}
	.st1{display:inline;}
	.st2{fill:none;}
	.st3{fill:none;stroke:#5A5A5A;stroke-width:1.5;stroke-miterlimit:10;}
	.st4{fill:#FFFFFF;stroke:#5A5A5A;stroke-width:1.5;stroke-miterlimit:10;}
	.st5{fill:none;stroke:#5A5A5A;stroke-width:1.5;stroke-linejoin:round;stroke-miterlimit:10;}
</style>
<g id="Layer_1" class="st0">
	<g class="st1">
		<path class="st2" d="M0,0h24v24H0V0z"/>
	</g>
	<g class="st1">
		<g>
			<path d="M4,6H2v14c0,1.1,0.9,2,2,2h14v-2H4V6z"/>
			<path d="M20,2H8C6.9,2,6,2.9,6,4v12c0,1.1,0.9,2,2,2h12c1.1,0,2-0.9,2-2V4C22,2.9,21.1,2,20,2z M14,15c-0.6,0-1.1-0.5-1.1-1.1
				c0-0.6,0.5-1,1.1-1c0.6,0,1,0.4,1,1C15,14.5,14.6,15,14,15z M16.5,8.8c-0.6,0.9-1.2,1.2-1.6,1.8c-0.1,0.2-0.2,0.4-0.2,1.2h-1.5
				c0-0.4-0.1-1.1,0.3-1.6c0.4-0.7,1.2-1.2,1.6-1.8c0.5-0.7,0.2-1.9-1.1-1.9c-0.9,0-1.3,0.7-1.5,1.2l-1.4-0.6C11.5,6,12.5,5,14,5
				c1.2,0,2.1,0.6,2.5,1.3C16.9,6.9,17.1,8,16.5,8.8z"/>
		</g>
	</g>
</g>
<g id="Layer_1_copy" class="st0">
	<g id="Group_50" transform="translate(0 0.75)" class="st1">
		<g>
			<g id="Group_19" transform="translate(0 19.799)">
				<line id="Line_12" class="st3" x1="2" y1="-1.2" x2="22" y2="-1.2"/>
			</g>
			<circle id="Ellipse_9" class="st4" cx="7.1" cy="18.6" r="1.9"/>
		</g>
		<g>
			<g id="Group_18" transform="translate(0 11.317)">
				<line id="Line_11" class="st3" x1="2" y1="-0.1" x2="22" y2="-0.1"/>
			</g>
			<circle id="Ellipse_10" class="st4" cx="19.5" cy="11.2" r="1.9"/>
		</g>
		<g>
			<g id="Group_17" transform="translate(0 2.836)">
				<line id="Line_10" class="st3" x1="2" y1="1.1" x2="22" y2="1.1"/>
			</g>
			<circle id="Ellipse_11" class="st4" cx="11.3" cy="3.9" r="1.9"/>
		</g>
	</g>
	<g class="st1">
		<path class="st2" d="M0,0h24v24H0V0z"/>
	</g>
</g>
<g id="Layer_1_copy_2">
	<g id="Group_50_1_" transform="translate(0 0.75)">
		<g>
			<g id="Group_19_1_" transform="translate(0 19.799)">
				<line id="Line_12_1_" class="st5" x1="2" y1="-1.2" x2="22" y2="-1.2"/>
			</g>
		</g>
		<g>
			<g id="Group_18_1_" transform="translate(0 11.317)">
				<line id="Line_11_1_" class="st5" x1="2" y1="-0.1" x2="22" y2="-0.1"/>
			</g>
		</g>
		<g>
			<g id="Group_17_1_" transform="translate(0 2.836)">
				<line id="Line_10_1_" class="st5" x1="2" y1="1.1" x2="22" y2="1.1"/>
			</g>
		</g>
	</g>
	<g>
		<path class="st2" d="M0,0h24v24H0V0z"/>
	</g>
</g>
</svg>
